<svg xmlns="http://www.w3.org/2000/svg" xmlns:xlink="http://www.w3.org/1999/xlink" width="500" zoomAndPan="magnify" viewBox="0 0 375 374.999991" height="500" preserveAspectRatio="xMidYMid meet" version="1.0"><defs><clipPath id="05c72ab3fa"><path d="M 37.5 37.5 L 294 37.5 L 294 320 L 37.5 320 Z M 37.5 37.5 " clip-rule="nonzero"/></clipPath><clipPath id="760305480e"><path d="M 37.5 145 L 142 145 L 142 295 L 37.5 295 Z M 37.5 145 " clip-rule="nonzero"/></clipPath><clipPath id="a0bf53da95"><path d="M 39 136 L 335.25 136 L 335.25 337.5 L 39 337.5 Z M 39 136 " clip-rule="nonzero"/></clipPath><clipPath id="f7933d9e9d"><path d="M 37.5 204 L 165 204 L 165 323 L 37.5 323 Z M 37.5 204 " clip-rule="nonzero"/></clipPath><clipPath id="8c645746cb"><path d="M 233 316 L 275 316 L 275 337.5 L 233 337.5 Z M 233 316 " clip-rule="nonzero"/></clipPath><clipPath id="017690ac59"><path d="M 231 243 L 335.25 243 L 335.25 326 L 231 326 Z M 231 243 " clip-rule="nonzero"/></clipPath><clipPath id="2f201b5ba9"><path d="M 231 275 L 331 275 L 331 337.5 L 231 337.5 Z M 231 275 " clip-rule="nonzero"/></clipPath></defs><g clip-path="url(#05c72ab3fa)"><path fill="#0066ff" d="M 261.4375 271.847656 C 232.285156 275.867188 211.851562 258.457031 217.527344 216.574219 C 223.132812 180.34375 212.628906 137.617188 210.695312 136.925781 C 210.109375 135.070312 207.945312 128.402344 207.847656 128.164062 C 207.726562 127.851562 207.179688 126.367188 207.011719 125.9375 C 199.742188 105.539062 191.539062 97.855469 185.226562 95.75 C 180.777344 94.265625 176.640625 95.4375 171.714844 98.359375 C 166.574219 101.421875 160.835938 107.835938 153.898438 119.449219 C 148.28125 128.90625 141.203125 145.734375 141.203125 145.734375 C 141.179688 145.78125 141.152344 145.828125 141.128906 145.878906 C 140.84375 146.523438 140.554688 147.195312 140.269531 147.863281 C 137.949219 153.273438 135.535156 159.234375 132.976562 165.796875 C 107.222656 232.273438 133.691406 325.734375 68.671875 318.816406 C 7.886719 312.351562 51.648438 175.46875 77.472656 130.867188 C 103.300781 86.246094 154.519531 12.222656 205.503906 46.144531 C 256.488281 80.066406 284.539062 153.945312 290.875 189.902344 C 298.238281 231.652344 288.816406 268.066406 261.4375 271.847656 Z M 261.4375 271.847656 " fill-opacity="1" fill-rule="evenodd"/></g><g clip-path="url(#760305480e)"><path fill="#002fa3" d="M 37.96875 268.015625 C 37.753906 268.589844 38.496094 284.296875 39.308594 289.203125 C 40.121094 294.109375 43.183594 294.109375 43.183594 294.109375 C 43.183594 294.109375 60.78125 260.117188 83.09375 226.554688 C 105.429688 193.015625 130.800781 173.121094 130.800781 173.121094 C 135.296875 158.132812 141.152344 145.878906 141.152344 145.878906 C 141.152344 145.878906 64.105469 194.714844 37.96875 268.015625 Z M 37.96875 268.015625 " fill-opacity="1" fill-rule="evenodd"/></g><g clip-path="url(#a0bf53da95)"><path fill="#0066ff" d="M 333.582031 263.921875 C 327.222656 299.042969 311.398438 324.394531 281.214844 334.855469 C 275.855469 336.507812 271.550781 337.894531 262.179688 337.347656 C 254.046875 336.867188 230.53125 331.039062 231.761719 305.457031 C 232.789062 277.617188 258.640625 275.703125 267.535156 277.1875 C 275.523438 278.527344 280.375 280.511719 287.289062 282.476562 C 301.253906 286.449219 320.8125 287.503906 328.371094 264.6875 C 329.972656 259.855469 330.425781 254.179688 329.804688 248.097656 C 327.75 227.941406 314.046875 203.070312 291.832031 187.460938 C 273.441406 174.558594 249.265625 167.996094 221.070312 175.777344 C 148.566406 195.765625 120.828125 253.101562 112.625 285.851562 C 104.421875 318.601562 75.824219 331.144531 54.636719 315.921875 C -6.773438 271.726562 126.089844 129.71875 239.628906 136.683594 C 309.8125 140.992188 343.148438 211.160156 333.582031 263.921875 Z M 333.582031 263.921875 " fill-opacity="1" fill-rule="evenodd"/></g><path fill="#002fa3" d="M 205.167969 138.742188 C 205.167969 138.742188 254.335938 129.574219 286.019531 151.671875 C 286.019531 151.671875 294.675781 169.9375 296.46875 191.003906 C 296.46875 191.003906 265.480469 161.964844 212.84375 178.339844 C 212.84375 178.339844 210.644531 151.074219 205.167969 138.742188 " fill-opacity="1" fill-rule="evenodd"/><path fill="#0066ff" d="M 210.695312 136.949219 C 210.695312 136.949219 217.964844 159.570312 218.273438 178.601562 C 218.273438 178.601562 260.816406 165.414062 290.945312 190.453125 C 290.945312 190.453125 285.398438 160.144531 277.003906 143.601562 C 277.027344 143.601562 244.867188 128.089844 210.695312 136.949219 " fill-opacity="1" fill-rule="evenodd"/><path fill="#c5ddff" d="M 280.660156 181.546875 C 280.660156 181.546875 279.320312 166.417969 269.207031 140.441406 C 265.953125 132.0625 261.769531 122.535156 256.4375 112.027344 C 244.242188 88.015625 209.90625 40.496094 180.324219 40.496094 C 177.574219 40.496094 174.847656 40.902344 172.191406 41.789062 C 101.9375 65.175781 61.785156 180.925781 61.785156 180.925781 C 59.730469 189.039062 63.269531 194.355469 69.511719 194.355469 C 77.257812 194.355469 89.191406 186.167969 99.832031 164.886719 C 117.71875 129.046875 147.945312 60.652344 179.652344 60.652344 C 180.585938 60.652344 181.519531 60.699219 182.453125 60.820312 C 201.511719 63.261719 223.988281 84.785156 238.21875 102.164062 C 244.6875 110.074219 252.511719 123.753906 259.675781 137.539062 C 259.65625 137.535156 280.664062 181.546875 280.664062 181.546875 Z M 227.285156 76.261719 C 227.09375 76.597656 226.785156 76.765625 226.378906 76.765625 C 221.378906 76.765625 201.414062 53.015625 182.664062 52.632812 L 181.828125 52.632812 C 162.363281 52.632812 148.828125 66.300781 134.695312 85.910156 C 120.371094 105.804688 94.257812 169.625 84.046875 171.613281 C 82.828125 171.851562 81.703125 171.972656 80.722656 171.972656 C 73.574219 171.972656 73.070312 165.554688 79.265625 152.890625 C 79.265625 152.890625 104.46875 106.929688 125.34375 81.382812 C 142.035156 60.964844 159.757812 45.476562 180.777344 45.476562 C 182.328125 45.476562 183.910156 45.570312 185.511719 45.738281 C 201.914062 47.535156 229.941406 71.761719 227.285156 76.261719 Z M 227.285156 76.261719 " fill-opacity="0.3" fill-rule="nonzero"/><path fill="#c5ddff" d="M 180.753906 45.5 C 159.757812 45.5 142.015625 60.988281 125.324219 81.410156 C 104.449219 106.953125 79.242188 152.914062 79.242188 152.914062 C 73.050781 165.578125 73.550781 171.996094 80.703125 171.996094 C 81.683594 171.996094 82.78125 171.875 84.027344 171.636719 C 94.238281 169.625 120.347656 105.828125 134.671875 85.933594 C 148.78125 66.300781 162.339844 52.65625 181.804688 52.65625 L 182.644531 52.65625 C 201.414062 53.039062 221.382812 76.789062 226.355469 76.789062 C 226.761719 76.789062 227.074219 76.621094 227.265625 76.285156 C 229.917969 71.785156 201.894531 47.558594 185.488281 45.761719 C 183.910156 45.570312 182.332031 45.5 180.753906 45.5 " fill-opacity="1" fill-rule="nonzero"/><path fill="#002fa3" d="M 216.527344 228.898438 C 216.671875 226.503906 216.839844 224.039062 217.03125 221.527344 C 216.765625 223.777344 216.574219 226.265625 216.527344 228.898438 Z M 218.226562 176.6875 C 218.210938 176.6875 218.195312 176.695312 218.179688 176.710938 C 218.203125 177.285156 218.226562 177.859375 218.273438 178.433594 C 218.273438 177.859375 218.25 177.285156 218.226562 176.6875 Z M 218.226562 176.6875 " fill-opacity="0.8" fill-rule="nonzero"/><path fill="#002fa3" d="M 217.484375 167.757812 C 217.796875 170.65625 218.035156 173.648438 218.203125 176.710938 L 218.25 176.710938 C 218.128906 173.742188 217.84375 170.75 217.484375 167.757812 M 211.003906 137.90625 L 210.933594 137.90625 C 210.859375 137.90625 210.789062 137.929688 210.71875 137.929688 C 211.816406 141.6875 212.988281 145.828125 214.328125 150.378906 C 214.351562 150.449219 214.375 150.496094 214.375 150.570312 C 212.964844 144.535156 211.578125 139.84375 211.003906 137.90625 " fill-opacity="0.8" fill-rule="nonzero"/><path fill="#002fa3" d="M 289.488281 244.125 C 287.097656 251.832031 283.558594 258.296875 278.847656 263.0625 C 277.460938 264.449219 275.976562 265.695312 274.421875 266.796875 C 270.667969 269.429688 266.316406 271.152344 261.414062 271.824219 C 258.710938 272.207031 256.105469 272.375 253.570312 272.375 C 249.839844 272.375 246.300781 271.96875 243 271.152344 C 240.871094 270.53125 238.683594 269.90625 236.53125 268.925781 C 234.070312 267.824219 231.929688 266.292969 229.992188 264.808594 C 223.390625 259.445312 218.847656 251.210938 217.101562 239.984375 C 216.574219 236.203125 216.433594 232.417969 216.503906 228.898438 C 216.648438 226.503906 216.816406 224.039062 217.007812 221.527344 C 218.058594 207.472656 219.515625 191.890625 218.273438 178.601562 L 218.273438 178.433594 C 218.273438 177.859375 218.25 177.285156 218.226562 176.6875 C 218.105469 173.742188 217.890625 170.726562 217.484375 167.757812 C 216.601562 161.246094 215.667969 155.691406 214.375 150.570312 C 213.683594 147.554688 212.988281 144.847656 212.390625 142.695312 C 211.792969 140.515625 211.316406 138.863281 211.003906 137.90625 C 210.8125 137.285156 210.144531 135.222656 210.167969 135.222656 C 187.808594 63.308594 159.113281 101.613281 141.128906 145.902344 C 140.53125 146.308594 121.164062 159.976562 105.09375 174.4375 C 105.09375 174.4375 137.449219 109.65625 149.046875 92.660156 C 160.785156 75.015625 175.660156 64.554688 193.570312 76.621094 C 207.824219 85.933594 219.324219 109.226562 224.96875 134.53125 C 226.835938 142.859375 228.054688 151.429688 228.53125 159.761719 C 228.84375 165.21875 228.820312 170.824219 228.582031 176.375 C 228.03125 188.464844 226.332031 200.316406 224.394531 209.914062 C 222.101562 221.285156 225.28125 233.183594 233.265625 241.585938 C 236.425781 244.914062 240.226562 247.597656 244.792969 249.03125 C 247.304688 249.824219 249.863281 250.207031 252.375 250.207031 C 267.414062 250.207031 281.429688 236.96875 283.316406 221.957031 C 284.992188 208.597656 285.085938 196.292969 284.417969 185.640625 C 282.910156 161.484375 277.914062 145.613281 278.007812 145.613281 L 278.773438 147.265625 C 281.191406 152.222656 282.839844 157.679688 284.703125 163.234375 C 286.570312 168.765625 290.46875 187.4375 290.96875 190.285156 C 294.222656 208.933594 294.222656 227.726562 289.488281 244.125 Z M 289.488281 244.125 " fill-opacity="0.8" fill-rule="nonzero"/><path fill="#002fa3" d="M 211.484375 167.855469 C 130.011719 187.507812 100.5 254.109375 89.691406 271.535156 C 84.625 279.699219 78 284.175781 72.046875 284.175781 C 65.300781 284.175781 59.417969 278.40625 57.648438 265.671875 C 54.324219 241.730469 76.945312 211.902344 76.945312 211.902344 C 76.945312 211.902344 55.378906 235.195312 52.484375 244.03125 C 49.613281 252.863281 46.695312 262.773438 48.300781 274.097656 C 49.996094 286.1875 58.175781 299.066406 72.046875 299.496094 C 72.425781 299.496094 72.785156 299.519531 73.144531 299.519531 C 100.691406 299.519531 102.054688 268.925781 123.839844 240.871094 C 140.222656 219.804688 164.46875 204.144531 164.46875 204.144531 C 164.46875 204.144531 159.519531 207.976562 153.277344 214.152344 C 154.257812 213.265625 155.285156 212.359375 156.339844 211.449219 C 170.734375 197.945312 189.242188 186.046875 212.871094 178.269531 C 212.871094 178.171875 212.84375 177.957031 212.820312 177.644531 L 211.484375 167.855469 " fill-opacity="0.4" fill-rule="nonzero"/><path fill="#002fa3" d="M 212.796875 177.644531 C 212.820312 177.980469 212.84375 178.195312 212.84375 178.269531 L 212.84375 178.316406 L 212.871094 178.316406 L 212.796875 177.644531 " fill-opacity="0.8" fill-rule="nonzero"/><path fill="#4c6dbe" d="M 98.757812 311.515625 C 94.738281 315.488281 90.21875 318.410156 85.4375 320.230469 C 90.746094 318.410156 95.121094 315.273438 98.757812 311.515625 M 47.652344 309.550781 C 49.996094 312.425781 52.792969 314.890625 56 316.855469 C 55.570312 316.566406 51.242188 313.71875 47.652344 309.550781 M 114.324219 279.769531 C 113.703125 281.878906 113.128906 283.914062 112.648438 285.875 C 112.480469 286.523438 112.316406 287.167969 112.125 287.816406 C 113.246094 284.34375 113.941406 281.472656 114.324219 279.769531 M 136.226562 234.691406 C 130.511719 242.832031 125.945312 251.019531 122.285156 258.871094 C 125.585938 251.976562 130.128906 243.648438 136.226562 234.691406 " fill-opacity="1" fill-rule="nonzero"/><path fill="#002fa3" d="M 40.289062 274 C 40 275.367188 39.785156 276.707031 39.59375 278.046875 C 39.785156 276.707031 40.023438 275.367188 40.289062 274 M 51.71875 245.371094 C 49.949219 248.050781 45.957031 254.828125 42.65625 265.238281 C 44.761719 258.800781 47.84375 252.121094 51.71875 245.371094 " fill-opacity="0.8" fill-rule="nonzero"/><g clip-path="url(#f7933d9e9d)"><path fill="#002fa3" d="M 164.46875 204.195312 C 164.324219 204.3125 159.421875 208.121094 153.277344 214.199219 C 148.855469 218.558594 143.785156 224.113281 139.3125 230.289062 C 138.238281 231.773438 137.207031 233.257812 136.226562 234.691406 C 130.511719 242.808594 125.945312 251.019531 122.285156 258.871094 C 116.738281 270.484375 114.660156 278.09375 114.660156 278.09375 C 114.660156 278.09375 114.5625 278.695312 114.324219 279.769531 C 113.679688 281.878906 113.128906 283.914062 112.648438 285.875 C 112.480469 286.523438 112.316406 287.167969 112.125 287.816406 C 109.828125 294.851562 106.988281 303.414062 98.757812 311.515625 C 94.738281 315.488281 90.21875 318.433594 85.4375 320.230469 C 82.257812 321.332031 78.625 322.394531 74.75 322.394531 C 74.34375 322.394531 73.9375 322.394531 73.507812 322.371094 C 66.765625 322.128906 61.199219 320.347656 56.023438 316.855469 C 55.570312 316.566406 55.113281 316.253906 54.660156 315.917969 C 51.957031 313.980469 49.78125 312.234375 47.675781 309.550781 C 45.882812 307.277344 43.589844 304.5 42.175781 300.957031 C 38.253906 291.117188 36.726562 277.496094 37.875 268.589844 C 38.039062 267.25 40.050781 275.367188 40.3125 274 C 40.40625 273.523438 40.3125 272.828125 40.433594 272.351562 C 41.054688 269.742188 41.699219 267.441406 42.417969 265.167969 C 44.542969 258.726562 47.84375 252.121094 51.71875 245.371094 C 52.195312 244.554688 52.4375 244.101562 52.484375 244.054688 C 52.4375 244.171875 52.171875 245.105469 51.648438 246.640625 C 49.925781 251.546875 46.722656 262.773438 48.300781 274.121094 C 49.996094 286.210938 58.175781 299.089844 72.046875 299.519531 C 72.402344 299.519531 72.785156 299.546875 73.144531 299.546875 C 100.667969 299.546875 102.054688 268.949219 123.839844 240.894531 C 140.078125 219.996094 164.0625 204.386719 164.46875 204.195312 Z M 164.46875 204.195312 " fill-opacity="0.8" fill-rule="nonzero"/></g><path fill="#c5ddff" d="M 184.53125 167.351562 C 168.773438 171.683594 146.152344 185.234375 126.902344 201.871094 C 110.929688 215.683594 103.441406 231.316406 97.441406 243.910156 C 94.5 250.085938 91.941406 255.425781 88.878906 259.445312 C 84.957031 264.570312 80.414062 267.058594 75.035156 267.058594 C 74.222656 267.058594 73.382812 267.011719 72.546875 266.890625 C 68.792969 266.390625 65.898438 264.402344 64.394531 261.363281 C 60.351562 253.152344 67.382812 239.578125 74.914062 226.386719 L 75.417969 225.5 C 80.296875 216.929688 90.289062 205.390625 102.152344 194.570312 C 112.578125 185.066406 129.390625 171.660156 150.3125 161.773438 C 152.058594 160.960938 153.804688 160.097656 155.5 159.285156 C 167.769531 153.347656 180.441406 147.21875 195.175781 147.121094 L 195.339844 147.121094 C 203.015625 147.121094 204.40625 151.238281 204.644531 153.011719 C 205.382812 158.636719 198.617188 163.472656 184.53125 167.351562 Z M 184.53125 167.351562 " fill-opacity="0.3" fill-rule="nonzero"/><path fill="#c5ddff" d="M 195.460938 149.753906 L 195.316406 149.753906 C 179.75 149.875 166.550781 157.296875 152.511719 163.953125 C 116.1875 181.117188 87.828125 211.519531 79.769531 225.691406 C 74.484375 234.980469 60.804688 258.179688 73.359375 259.902344 C 74.003906 259.996094 74.605469 260.019531 75.203125 260.019531 C 92.300781 260.019531 91.320312 224.160156 123.914062 196.007812 C 142.253906 180.160156 165.6875 165.363281 183.433594 160.480469 C 200.625 155.742188 204.046875 149.753906 195.460938 149.753906 " fill-opacity="0.4" fill-rule="nonzero"/><path fill="#c5ddff" d="M 277.960938 216.761719 C 276.070312 235.984375 264.832031 244.722656 253.496094 244.722656 C 242.164062 244.722656 231.808594 236.800781 228.773438 222.414062 C 227.433594 216.09375 230.0625 198.832031 232 175.898438 C 233.027344 163.738281 233.839844 149.945312 233.792969 135.367188 C 233.792969 134.960938 233.792969 134.578125 233.816406 134.21875 C 234.007812 131.5625 234.917969 130.363281 236.375 130.363281 C 238.050781 130.363281 240.441406 131.96875 243.214844 134.746094 C 251.15625 142.71875 262.417969 160.480469 270 178.9375 C 275.472656 192.320312 279.011719 206.085938 277.960938 216.761719 Z M 277.960938 216.761719 " fill-opacity="0.3" fill-rule="nonzero"/><path fill="#c5ddff" d="M 254.191406 179.726562 C 254.191406 179.726562 257.226562 190.644531 253.6875 209.390625 C 252.277344 216.835938 244.027344 221.957031 242.714844 228.445312 C 241.328125 235.195312 246.011719 238.859375 252.109375 238.859375 C 260.097656 238.859375 270.5 232.515625 272.628906 218.4375 C 275.449219 199.886719 268.539062 184.636719 262.394531 177.046875 C 261.4375 175.875 260.074219 175.082031 258.566406 174.890625 C 258.519531 174.890625 258.472656 174.867188 258.425781 174.867188 C 256.175781 174.558594 254.167969 176.304688 254.167969 178.578125 Z M 254.191406 179.726562 " fill-opacity="0.5" fill-rule="nonzero"/><g clip-path="url(#8c645746cb)"><path fill="#0066ff" d="M 233.195312 316.996094 C 235.296875 325.257812 243.714844 333.277344 255.625 336.363281 C 258.207031 336.960938 260.503906 337.226562 262.175781 337.320312 C 263.585938 337.394531 264.878906 337.441406 266.097656 337.441406 C 269.589844 337.441406 272.265625 337.128906 274.683594 336.628906 C 271.835938 337.105469 269.0625 337.347656 266.433594 337.347656 C 249.023438 337.347656 236.207031 327.507812 233.195312 316.996094 " fill-opacity="1" fill-rule="nonzero"/></g><g clip-path="url(#017690ac59)"><path fill="#002fa3" d="M 232.097656 301.554688 C 231.929688 302.800781 231.832031 304.09375 231.761719 305.457031 C 231.664062 307.757812 231.761719 309.886719 232.023438 311.875 C 232.3125 313.503906 232.695312 315.203125 233.21875 316.996094 C 231.640625 310.84375 231.570312 305.625 232.097656 301.554688 M 335.183594 243.910156 C 333.558594 264.953125 321.890625 295.332031 297.808594 312.113281 C 289.726562 316.398438 280.78125 318.457031 272.414062 318.457031 C 255.484375 318.457031 240.777344 310.007812 239.746094 294.328125 C 239.054688 283.648438 247.640625 279.914062 247.640625 279.914062 C 247.640625 279.914062 244.792969 280.96875 241.46875 283.625 C 238.671875 285.898438 236.234375 288.890625 234.488281 292.746094 C 234.894531 291.859375 235.203125 291.40625 235.203125 291.40625 C 235.203125 291.40625 230.542969 320.945312 267.296875 325.28125 C 267.917969 325.351562 268.585938 325.375 269.304688 325.375 C 277.078125 325.375 290.371094 321.402344 296.207031 318.335938 C 316.890625 307.46875 327.628906 286.234375 330.714844 275.867188 L 333.582031 263.945312 C 333.847656 263.910156 335.613281 250.6875 335.183594 243.910156 " fill-opacity="0.4" fill-rule="nonzero"/></g><path fill="#6884c9" d="M 234.507812 292.746094 C 233.765625 294.351562 232.621094 297.34375 232.09375 301.554688 C 232.523438 298.203125 233.359375 295.285156 234.507812 292.746094 " fill-opacity="1" fill-rule="nonzero"/><g clip-path="url(#2f201b5ba9)"><path fill="#002fa3" d="M 330.738281 275.84375 C 327.652344 286.234375 316.914062 307.46875 296.230469 318.3125 C 290.371094 321.378906 277.101562 325.351562 269.328125 325.351562 C 268.609375 325.351562 267.941406 325.328125 267.320312 325.257812 C 230.566406 320.945312 235.226562 291.382812 235.226562 291.382812 C 235.226562 291.382812 234.941406 291.835938 234.511719 292.722656 C 233.363281 295.261719 232.527344 298.179688 232.097656 301.53125 C 231.59375 305.601562 231.640625 310.820312 233.21875 316.996094 C 236.234375 327.507812 247.996094 337.734375 266.386719 337.480469 C 269.042969 337.445312 271.839844 337.105469 274.683594 336.628906 C 276.957031 336.148438 278.988281 335.527344 281.214844 334.832031 C 287.046875 333.035156 292.355469 330.59375 297.140625 327.554688 C 324.425781 309.242188 330.738281 275.84375 330.738281 275.84375 Z M 330.738281 275.84375 " fill-opacity="0.8" fill-rule="nonzero"/></g><path fill="#c5ddff" d="M 319.757812 281.542969 C 319.757812 281.542969 308.519531 290.949219 294.746094 290.949219 L 294.722656 290.949219 C 284.175781 290.949219 279.511719 286.738281 273.273438 284.488281 C 269.277344 283.050781 264.757812 281.855469 260.597656 281.855469 C 255.886719 281.855469 251.628906 283.386719 249.046875 287.816406 C 245.582031 293.824219 254.714844 306.007812 275.28125 306.007812 C 276.40625 306.007812 277.578125 305.960938 278.796875 305.890625 C 295.007812 304.859375 310.359375 295.785156 319.757812 281.542969 " fill-opacity="0.3" fill-rule="nonzero"/><path fill="#c5ddff" d="M 283.101562 294.710938 C 283.101562 294.710938 277.960938 295.332031 269.472656 293.128906 C 266.101562 292.242188 264.042969 288.917969 261.125 288.101562 C 258.066406 287.265625 256.199219 288.867188 255.960938 291.140625 C 255.648438 294.160156 258.183594 298.347656 264.59375 299.832031 C 273.035156 301.773438 280.304688 299.878906 284.035156 297.917969 C 284.609375 297.605469 285.015625 297.128906 285.183594 296.578125 C 285.183594 296.554688 285.183594 296.527344 285.207031 296.527344 C 285.445312 295.691406 284.703125 294.851562 283.652344 294.757812 Z M 283.101562 294.710938 " fill-opacity="0.5" fill-rule="nonzero"/><path fill="#002fa3" d="M 329.800781 248.097656 C 327.746094 227.941406 314.042969 203.070312 291.828125 187.460938 L 289.199219 173.695312 C 311.269531 191.027344 331.332031 215.230469 329.800781 248.097656 Z M 329.800781 248.097656 " fill-opacity="0.8" fill-rule="nonzero"/><path fill="#c5ddff" d="M 287.765625 155.714844 C 287.835938 154.902344 327.628906 183.175781 332.816406 231.558594 C 321.960938 186 298.382812 170.175781 291.78125 167.136719 C 290.636719 163.042969 289.222656 159.164062 287.765625 155.714844 Z M 287.765625 155.714844 " fill-opacity="1" fill-rule="evenodd"/></svg>